<svg xmlns="http://www.w3.org/2000/svg" width="1200" height="360" viewBox="0 0 1200 360">
<defs>
  <linearGradient id="bg" x1="0" y1="0" x2="1" y2="1">
    <stop offset="0%" stop-color="#071A33"/>
    <stop offset="58%" stop-color="#06213A"/>
    <stop offset="100%" stop-color="#007E75"/>
  </linearGradient>
  <pattern id="dots" width="18" height="18" patternUnits="userSpaceOnUse">
    <circle cx="2" cy="2" r="1" fill="#37D8D0" opacity=".16"/>
  </pattern>
</defs>

<rect width="1200" height="360" rx="26" fill="url(#bg)"/>
<rect x="700" width="500" height="360" fill="url(#dots)" opacity=".8"/>

<g stroke="#52E2DA" stroke-width="1.2" opacity=".12" fill="none">
  <path d="M650 325 C790 245 905 165 1160 55"/>
  <path d="M705 350 C840 275 955 210 1180 120"/>
</g>

<text x="70" y="118" font-family="Arial, Helvetica, sans-serif" font-size="62" font-weight="700" fill="#FFFFFF">
  Tae-Hoon <tspan fill="#2CE0D0">Kim</tspan>
</text>
<text x="70" y="174" font-family="Arial, Helvetica, sans-serif" font-size="28" fill="#F2F7FB">Software Engineer</text>
<text x="70" y="214" font-family="Arial, Helvetica, sans-serif" font-size="28" fill="#F2F7FB">Embedded Systems · Cybersecurity</text>
<text x="70" y="272" font-family="Arial, Helvetica, sans-serif" font-size="20" fill="#C9D8E4">Building reliable software through</text>
<text x="70" y="304" font-family="Arial, Helvetica, sans-serif" font-size="20" font-weight="600" fill="#2CE0D0">problem analysis · repeated validation</text>

<!-- right-side system/security motif, shifted inward so nothing clips -->
<g transform="translate(710,70)" fill="none" stroke-linecap="round" stroke-linejoin="round">
  <rect x="0" y="35" width="90" height="70" rx="10" stroke="#2CE0D0" stroke-width="2" opacity=".85"/>
  <path d="M24 70 l13 -13 M24 70 l13 13 M66 57 l-13 13 M66 83 l-13 -13" stroke="#2CE0D0" stroke-width="2.5"/>

  <path d="M90 70 C140 70 145 106 175 106" stroke="#2CE0D0" stroke-width="1.5" stroke-dasharray="4 8" opacity=".7"/>
  <circle cx="108" cy="70" r="3.5" fill="#2CE0D0" stroke="none"/>
  <circle cx="125" cy="76" r="3.5" fill="#2CE0D0" stroke="none"/>
  <circle cx="143" cy="86" r="3.5" fill="#2CE0D0" stroke="none"/>

  <path d="M175 70 h84 v82 c-21 19 -41 32 -42 32 c-1 0 -22 -13 -42 -32z" stroke="#2CE0D0" stroke-width="2"/>
  <path d="M198 117 l13 13 l25 -29" stroke="#2CE0D0" stroke-width="3"/>

  <path d="M259 107 C305 107 316 133 346 133" stroke="#2CE0D0" stroke-width="1.5" stroke-dasharray="4 8" opacity=".7"/>
  <circle cx="279" cy="109" r="3.5" fill="#2CE0D0" stroke="none"/>
  <circle cx="297" cy="115" r="3.5" fill="#2CE0D0" stroke="none"/>
  <circle cx="315" cy="124" r="3.5" fill="#2CE0D0" stroke="none"/>

  <rect x="346" y="98" width="88" height="102" rx="12" stroke="#2CE0D0" stroke-width="2"/>
  <line x1="367" y1="122" x2="410" y2="122" stroke="#2CE0D0" stroke-width="2"/>
  <line x1="367" y1="149" x2="410" y2="149" stroke="#2CE0D0" stroke-width="2"/>
  <line x1="367" y1="176" x2="410" y2="176" stroke="#2CE0D0" stroke-width="2"/>
  <circle cx="420" cy="122" r="4" fill="#2CE0D0" stroke="none"/>
  <circle cx="420" cy="149" r="4" fill="#2CE0D0" stroke="none"/>
  <circle cx="420" cy="176" r="4" fill="#2CE0D0" stroke="none"/>
</g>
</svg>
